<svg id="Layer_1" data-name="Layer 1" xmlns="http://www.w3.org/2000/svg" viewBox="0 0 1920 1080"><defs><style>.cls-1{fill:#fff;stroke:#d1d3d4;stroke-miterlimit:10;stroke-width:3px;}</style></defs><title>hexagonbg</title><polygon class="cls-1" points="1081.09 205.69 1021.01 102.75 1081.09 -0.19 1201.25 -0.19 1261.33 102.75 1201.25 205.69 1081.09 205.69"/><polygon class="cls-1" points="1261.33 308.63 1201.25 205.69 1261.33 102.75 1381.48 102.75 1441.56 205.69 1381.48 308.63 1261.33 308.63"/><polygon class="cls-1" points="1261.33 102.75 1201.25 -0.19 1261.33 -103.13 1381.48 -103.13 1441.56 -0.19 1381.48 102.75 1261.33 102.75"/><polygon class="cls-1" points="1441.54 205.69 1381.46 102.75 1441.54 -0.19 1561.7 -0.19 1621.78 102.75 1561.7 205.69 1441.54 205.69"/><polygon class="cls-1" points="1621.78 308.63 1561.7 205.69 1621.78 102.75 1741.94 102.75 1802.02 205.69 1741.94 308.63 1621.78 308.63"/><polygon class="cls-1" points="1621.78 102.75 1561.7 -0.19 1621.78 -103.13 1741.94 -103.13 1802.02 -0.19 1741.94 102.75 1621.78 102.75"/><polygon class="cls-1" points="359.92 205.69 299.84 102.75 359.92 -0.19 480.07 -0.19 540.15 102.75 480.07 205.69 359.92 205.69"/><polygon class="cls-1" points="540.15 308.63 480.07 205.69 540.15 102.75 660.31 102.75 720.39 205.69 660.31 308.63 540.15 308.63"/><polygon class="cls-1" points="540.15 102.75 480.07 -0.19 540.15 -103.13 660.31 -103.13 720.39 -0.19 660.31 102.75 540.15 102.75"/><polygon class="cls-1" points="720.37 205.69 660.29 102.75 720.37 -0.19 840.53 -0.19 900.61 102.75 840.53 205.69 720.37 205.69"/><polygon class="cls-1" points="900.61 308.63 840.53 205.69 900.61 102.75 1020.77 102.75 1080.85 205.69 1020.77 308.63 900.61 308.63"/><polygon class="cls-1" points="900.61 102.75 840.53 -0.19 900.61 -103.13 1020.77 -103.13 1080.85 -0.19 1020.77 102.75 900.61 102.75"/><polygon class="cls-1" points="-0.38 205.69 -60.46 102.75 -0.38 -0.19 119.78 -0.19 179.86 102.75 119.78 205.69 -0.38 205.69"/><polygon class="cls-1" points="179.86 308.63 119.78 205.69 179.86 102.75 300.02 102.75 360.1 205.69 300.02 308.63 179.86 308.63"/><polygon class="cls-1" points="179.86 102.75 119.78 -0.19 179.86 -103.13 300.02 -103.13 360.1 -0.19 300.02 102.75 179.86 102.75"/><polygon class="cls-1" points="1802.23 205.69 1742.16 102.75 1802.23 -0.19 1922.39 -0.19 1982.47 102.75 1922.39 205.69 1802.23 205.69"/><polygon class="cls-1" points="1261.39 514.51 1201.31 411.57 1261.39 308.63 1381.55 308.63 1441.63 411.57 1381.55 514.51 1261.39 514.51"/><polygon class="cls-1" points="1441.63 617.45 1381.55 514.51 1441.63 411.57 1561.79 411.57 1621.87 514.51 1561.79 617.45 1441.63 617.45"/><polygon class="cls-1" points="1441.63 411.57 1381.55 308.63 1441.63 205.69 1561.79 205.69 1621.87 308.63 1561.79 411.57 1441.63 411.57"/><polygon class="cls-1" points="1621.85 514.51 1561.77 411.57 1621.85 308.63 1742.01 308.63 1802.08 411.57 1742.01 514.51 1621.85 514.51"/><polygon class="cls-1" points="1802.08 617.45 1742.01 514.51 1802.08 411.57 1922.24 411.57 1982.32 514.51 1922.24 617.45 1802.08 617.45"/><polygon class="cls-1" points="1802.08 411.57 1742.01 308.63 1802.08 205.69 1922.24 205.69 1982.32 308.63 1922.24 411.57 1802.08 411.57"/><polygon class="cls-1" points="540.27 514.51 480.19 411.57 540.27 308.63 660.43 308.63 720.51 411.57 660.43 514.51 540.27 514.51"/><polygon class="cls-1" points="720.51 617.45 660.43 514.51 720.51 411.57 840.67 411.57 900.75 514.51 840.67 617.45 720.51 617.45"/><polygon class="cls-1" points="720.51 411.57 660.43 308.63 720.51 205.69 840.67 205.69 900.75 308.63 840.67 411.57 720.51 411.57"/><polygon class="cls-1" points="900.72 514.51 840.64 411.57 900.72 308.63 1020.88 308.63 1080.96 411.57 1020.88 514.51 900.72 514.51"/><polygon class="cls-1" points="1080.96 617.45 1020.88 514.51 1080.96 411.57 1201.12 411.57 1261.2 514.51 1201.12 617.45 1080.96 617.45"/><polygon class="cls-1" points="1080.96 411.57 1020.88 308.63 1080.96 205.69 1201.12 205.69 1261.2 308.63 1201.12 411.57 1080.96 411.57"/><polygon class="cls-1" points="-0.16 617.45 -60.24 514.51 -0.16 411.57 120 411.57 180.08 514.51 120 617.45 -0.16 617.45"/><polygon class="cls-1" points="-0.16 411.57 -60.24 308.63 -0.16 205.69 120 205.69 180.08 308.63 120 411.57 -0.16 411.57"/><polygon class="cls-1" points="180.06 514.51 119.98 411.57 180.06 308.63 300.21 308.63 360.29 411.57 300.21 514.51 180.06 514.51"/><polygon class="cls-1" points="360.29 617.45 300.21 514.51 360.29 411.57 480.45 411.57 540.53 514.51 480.45 617.45 360.29 617.45"/><polygon class="cls-1" points="360.29 411.57 300.21 308.63 360.29 205.69 480.45 205.69 540.53 308.63 480.45 411.57 360.29 411.57"/><polygon class="cls-1" points="1441.76 823.33 1381.68 720.39 1441.76 617.45 1561.92 617.45 1622 720.39 1561.92 823.33 1441.76 823.33"/><polygon class="cls-1" points="1622 926.27 1561.92 823.33 1622 720.39 1742.16 720.39 1802.24 823.33 1742.16 926.27 1622 926.27"/><polygon class="cls-1" points="1622 720.39 1561.92 617.45 1622 514.51 1742.16 514.51 1802.24 617.45 1742.16 720.39 1622 720.39"/><polygon class="cls-1" points="1802.22 823.33 1742.14 720.39 1802.22 617.45 1922.37 617.45 1982.45 720.39 1922.37 823.33 1802.22 823.33"/><polygon class="cls-1" points="720.64 823.33 660.56 720.39 720.64 617.45 840.8 617.45 900.88 720.39 840.8 823.33 720.64 823.33"/><polygon class="cls-1" points="900.88 926.27 840.8 823.33 900.88 720.39 1021.03 720.39 1081.11 823.33 1021.03 926.27 900.88 926.27"/><polygon class="cls-1" points="900.88 720.39 840.8 617.45 900.88 514.51 1021.03 514.51 1081.11 617.45 1021.03 720.39 900.88 720.39"/><polygon class="cls-1" points="1081.09 823.33 1021.01 720.39 1081.09 617.45 1201.25 617.45 1261.33 720.39 1201.25 823.33 1081.09 823.33"/><polygon class="cls-1" points="1261.33 926.27 1201.25 823.33 1261.33 720.39 1381.49 720.39 1441.57 823.33 1381.49 926.27 1261.33 926.27"/><polygon class="cls-1" points="1261.33 720.39 1201.25 617.45 1261.33 514.51 1381.49 514.51 1441.57 617.45 1381.49 720.39 1261.33 720.39"/><polygon class="cls-1" points="-0.03 823.33 -60.11 720.39 -0.03 617.45 120.13 617.45 180.21 720.39 120.13 823.33 -0.03 823.33"/><polygon class="cls-1" points="180.21 926.27 120.13 823.33 180.21 720.39 300.37 720.39 360.44 823.33 300.37 926.27 180.21 926.27"/><polygon class="cls-1" points="180.21 720.39 120.13 617.45 180.21 514.51 300.37 514.51 360.44 617.45 300.37 720.39 180.21 720.39"/><polygon class="cls-1" points="360.43 823.33 300.35 720.39 360.43 617.45 480.58 617.45 540.66 720.39 480.58 823.33 360.43 823.33"/><polygon class="cls-1" points="540.66 926.27 480.58 823.33 540.66 720.39 660.82 720.39 720.9 823.33 660.82 926.27 540.66 926.27"/><polygon class="cls-1" points="540.66 720.39 480.58 617.45 540.66 514.51 660.82 514.51 720.9 617.45 660.82 720.39 540.66 720.39"/><polygon class="cls-1" points="1261.09 1132.15 1201.01 1029.21 1261.09 926.27 1381.25 926.27 1441.33 1029.21 1381.25 1132.15 1261.09 1132.15"/><polygon class="cls-1" points="1441.33 1235.09 1381.25 1132.15 1441.33 1029.21 1561.49 1029.21 1621.57 1132.15 1561.49 1235.09 1441.33 1235.09"/><polygon class="cls-1" points="1441.33 1029.21 1381.25 926.27 1441.33 823.33 1561.49 823.33 1621.57 926.27 1561.49 1029.21 1441.33 1029.21"/><polygon class="cls-1" points="1621.55 1132.15 1561.47 1029.21 1621.55 926.27 1741.7 926.27 1801.78 1029.21 1741.7 1132.15 1621.55 1132.15"/><polygon class="cls-1" points="1801.78 1235.09 1741.7 1132.15 1801.78 1029.21 1921.94 1029.21 1982.02 1132.15 1921.94 1235.09 1801.78 1235.09"/><polygon class="cls-1" points="1801.78 1029.21 1741.7 926.27 1801.78 823.33 1921.94 823.33 1982.02 926.27 1921.94 1029.21 1801.78 1029.21"/><polygon class="cls-1" points="539.97 1132.15 479.89 1029.21 539.97 926.27 660.13 926.27 720.21 1029.21 660.13 1132.15 539.97 1132.15"/><polygon class="cls-1" points="720.21 1235.09 660.13 1132.15 720.21 1029.21 840.36 1029.21 900.44 1132.15 840.36 1235.09 720.21 1235.09"/><polygon class="cls-1" points="720.21 1029.21 660.13 926.27 720.21 823.33 840.36 823.33 900.44 926.27 840.36 1029.21 720.21 1029.21"/><polygon class="cls-1" points="900.42 1132.15 840.34 1029.21 900.42 926.27 1020.58 926.27 1080.66 1029.21 1020.58 1132.15 900.42 1132.15"/><polygon class="cls-1" points="1080.66 1235.09 1020.58 1132.15 1080.66 1029.21 1200.82 1029.21 1260.9 1132.15 1200.82 1235.09 1080.66 1235.09"/><polygon class="cls-1" points="1080.66 1029.21 1020.58 926.27 1080.66 823.33 1200.82 823.33 1260.9 926.27 1200.82 1029.21 1080.66 1029.21"/><polygon class="cls-1" points="-0.46 1235.09 -60.54 1132.15 -0.46 1029.21 119.69 1029.21 179.77 1132.15 119.69 1235.09 -0.46 1235.09"/><polygon class="cls-1" points="-0.46 1029.21 -60.54 926.27 -0.46 823.33 119.69 823.33 179.77 926.27 119.69 1029.21 -0.46 1029.21"/><polygon class="cls-1" points="179.75 1132.15 119.67 1029.21 179.75 926.27 299.91 926.27 359.99 1029.21 299.91 1132.15 179.75 1132.15"/><polygon class="cls-1" points="359.99 1235.09 299.91 1132.15 359.99 1029.21 480.15 1029.21 540.23 1132.15 480.15 1235.09 359.99 1235.09"/><polygon class="cls-1" points="359.99 1029.21 299.91 926.27 359.99 823.33 480.15 823.33 540.23 926.27 480.15 1029.21 359.99 1029.21"/></svg>